<?xml version="1.0" standalone="no"?>
<!DOCTYPE svg PUBLIC "-//W3C//DTD SVG 20010904//EN"
 "http://www.w3.org/TR/2001/REC-SVG-20010904/DTD/svg10.dtd">
<svg version="1.0" xmlns="http://www.w3.org/2000/svg"
 width="438.000000pt" height="686.000000pt" viewBox="0 0 438.000000 686.000000"
 preserveAspectRatio="xMidYMid meet">

<g transform="translate(0.000000,686.000000) scale(0.100000,-0.100000)"
fill="#000000" stroke="none">
<path d="M2140 6853 c0 -4 5 -28 11 -52 20 -87 28 -233 18 -316 -27 -218 -127
-398 -364 -655 -241 -261 -362 -485 -400 -740 -29 -191 -20 -284 66 -650 60
-254 72 -376 45 -458 -31 -92 -106 -121 -164 -63 -37 38 -50 88 -58 231 -3 63
-15 148 -25 189 -37 144 -124 290 -245 413 -64 64 -210 175 -219 166 -3 -2 4
-34 14 -71 78 -271 35 -485 -159 -802 -190 -312 -256 -444 -309 -625 -91 -305
-75 -636 43 -911 6 -14 -10 -23 -91 -49 -189 -63 -262 -115 -289 -207 -12 -42
-13 -69 -4 -160 52 -519 195 -872 491 -1212 135 -155 359 -338 531 -433 l78
-43 0 -50 c0 -80 16 -119 66 -165 143 -131 459 -189 1034 -190 518 0 836 59
975 181 48 43 64 75 72 155 l8 68 90 54 c142 86 269 187 400 317 352 350 538
748 615 1322 25 187 -41 259 -340 376 -63 24 -123 47 -132 50 -16 6 -15 13 13
77 117 277 141 647 62 965 -74 300 -215 558 -509 940 -205 265 -283 396 -330
550 -20 67 -26 291 -10 378 l8 48 -53 -32 c-132 -81 -239 -241 -273 -411 -20
-99 -20 -273 0 -428 8 -67 13 -125 9 -128 -4 -4 -44 32 -89 79 -90 94 -153
204 -177 309 -27 120 -14 284 42 530 42 187 49 246 50 410 0 296 -75 547 -233
777 -73 107 -269 301 -268 266z m190 -3359 c69 -20 150 -72 185 -118 15 -20
31 -33 36 -31 27 17 124 25 174 15 89 -19 146 -66 220 -183 8 -14 18 -14 61
-5 94 19 211 -31 271 -115 31 -42 63 -122 63 -156 0 -15 10 -19 58 -24 105 -9
209 -83 259 -185 34 -70 43 -192 20 -271 -11 -38 -12 -51 -3 -51 22 0 91 -58
116 -98 25 -39 27 -40 147 -68 68 -16 123 -34 123 -40 0 -17 -31 -41 -90 -68
-107 -48 -300 -88 -610 -125 -580 -70 -1619 -75 -2275 -10 -301 29 -608 90
-707 140 -44 22 -88 57 -88 70 0 4 23 12 51 18 28 6 81 18 118 26 l66 15 0 78
c0 90 22 146 81 211 38 42 99 81 129 81 11 0 15 12 15 49 0 173 164 318 335
294 35 -4 45 -3 45 8 0 32 53 123 100 173 63 67 132 99 215 100 33 1 71 -2 85
-6 22 -6 28 -3 45 28 27 50 98 110 152 128 55 19 140 21 194 4 37 -11 40 -10
83 30 99 91 210 121 326 86z m-937 -2034 l13 -35 134 -5 135 -5 -105 -79 c-58
-44 -107 -81 -109 -83 -3 -2 14 -62 38 -134 23 -73 40 -134 37 -136 -2 -3 -54
32 -116 77 l-110 82 -43 -34 c-58 -47 -159 -118 -167 -118 -4 0 10 57 31 127
30 100 36 130 26 139 -6 6 -52 42 -102 79 -49 37 -91 71 -93 76 -2 5 56 10
129 11 l132 3 39 115 c21 63 41 122 44 130 4 9 20 -24 40 -80 19 -52 40 -111
47 -130z m1727 85 l41 -124 136 -3 136 -3 -110 -83 -110 -83 43 -132 c24 -72
44 -133 44 -135 0 -7 -53 27 -138 91 l-93 69 -72 -54 c-108 -81 -138 -101
-143 -96 -2 3 13 61 34 130 l39 126 -110 84 -111 83 136 3 137 3 41 124 c23
69 45 125 50 125 5 0 27 -56 50 -125z m-864 -120 l48 -145 160 -2 160 -3 -127
-95 c-105 -78 -127 -99 -122 -115 2 -11 25 -82 49 -157 24 -76 42 -138 39
-138 -4 0 -93 63 -214 154 l-45 34 -119 -89 c-118 -88 -138 -101 -130 -76 2 6
23 74 46 151 33 112 38 140 27 147 -40 25 -237 175 -237 182 -1 4 69 7 154 7
l154 0 47 145 c25 80 50 145 54 145 5 0 30 -65 56 -145z"/>
<path d="M2420 3051 c-88 -27 -170 -113 -155 -161 11 -34 40 -33 114 6 64 33
75 36 134 32 50 -3 74 -10 114 -36 58 -37 73 -39 97 -13 35 39 -17 114 -109
157 -52 25 -141 31 -195 15z"/>
<path d="M1730 2941 c-79 -16 -161 -79 -181 -139 -10 -30 -9 -37 10 -55 l21
-21 73 38 c100 51 153 52 252 1 60 -31 75 -35 93 -26 74 39 -6 159 -131 196
-54 16 -81 17 -137 6z"/>
<path d="M2854 2691 c-87 -40 -148 -117 -124 -160 15 -29 41 -26 103 9 90 51
171 49 258 -6 62 -39 99 -28 99 30 0 40 -71 108 -136 130 -63 21 -149 20 -200
-3z"/>
<path d="M1207 2606 c-99 -36 -177 -142 -135 -184 20 -20 55 -14 116 20 82 47
151 45 246 -6 62 -33 71 -35 90 -23 62 41 -4 153 -114 192 -52 18 -152 19
-203 1z"/>
<path d="M2108 2547 c-92 -30 -168 -114 -154 -170 10 -41 38 -42 112 -3 95 51
160 50 256 -1 71 -39 88 -39 111 -1 24 37 -24 110 -100 155 -53 31 -164 41
-225 20z"/>
</g>
</svg>
