<?xml version='1.0' encoding='utf-8'?>
<svg version="1.0" width="1024" height="1024" viewBox="0 0 1024.000000 1024.000000" preserveAspectRatio="xMidYMid meet" xmlns="http://www.w3.org/2000/svg">
  <g transform="translate(0.000000,1024.000000) scale(0.100000,-0.100000)" fill="#b88a2a" stroke="none">
    <path d="M2833 9243 c29 -34 86 -159 109 -244 21 -75 23 -105 23 -289 -1 -228 -27 -579 -46 -625 -12 -27 -14 -16 -21 110 -13 222 -28 290 -92 419 -89 181 -201 295 -373 380 -111 55 -208 78 -338 80 -60 0 -128 -3 -150 -7 l-40 -9 77 -28 c121 -44 262 -117 390 -202 65 -43 118 -80 118 -82 0 -2 -17 0 -37 4 -50 10 -133 20 -133 16 0 -2 31 -24 69 -49 80 -53 253 -192 295 -236 l29 -30 -49 18 c-27 10 -62 21 -79 25 -28 7 -28 6 21 -46 56 -59 100 -122 134 -187 25 -50 102 -282 96 -289 -3 -2 -25 38 -51 90 -66 130 -116 198 -238 314 -159 154 -285 222 -507 276 -78 19 -270 16 -350 -5 -66 -17 -250 -100 -250 -113 0 -3 8 -4 18 -1 20 5 237 -7 340 -19 l64 -7 -61 -29 c-34 -16 -61 -32 -61 -36 0 -4 73 -8 163 -9 89 -1 198 -8 242 -16 78 -14 79 -14 40 -21 -73 -13 -175 -46 -175 -57 0 -6 4 -8 9 -5 14 9 160 -22 255 -54 173 -58 423 -207 484 -287 l24 -33 -118 56 c-256 121 -381 154 -577 154 -311 0 -554 -120 -714 -352 -47 -68 -93 -149 -93 -163 0 -4 14 5 31 19 51 43 146 95 309 168 85 38 170 78 188 89 45 26 50 24 20 -8 -28 -30 -90 -125 -85 -130 4 -4 308 160 346 186 50 34 54 34 29 0 -31 -41 -61 -99 -55 -105 2 -3 38 6 78 20 166 55 432 61 579 14 l75 -25 -106 -1 c-134 -2 -220 -15 -331 -52 -221 -74 -383 -193 -526 -385 -99 -134 -159 -301 -169 -470 l-5 -100 38 55 c20 30 90 118 154 195 135 161 193 240 232 310 32 59 34 49 12 -87 -18 -113 -15 -138 11 -88 10 19 60 100 111 179 52 79 95 149 95 155 2 21 18 -69 19 -109 l1 -40 17 25 c79 115 220 240 327 291 64 31 102 39 73 17 -20 -17 -38 -71 -38 -115 0 -55 50 -99 124 -108 49 -6 62 -5 84 12 26 19 65 70 75 96 3 8 17 5 46 -11 l41 -22 -10 25 c-6 15 -15 35 -21 46 -9 18 -8 19 9 10 30 -16 70 -67 102 -130 30 -61 80 -205 80 -233 0 -9 4 -19 10 -23 12 -8 49 114 57 190 6 59 7 59 19 30 6 -16 33 -113 59 -215 26 -102 49 -192 53 -200 9 -24 31 108 32 190 l0 75 51 -105 c28 -58 63 -142 79 -188 l28 -83 12 33 c6 18 14 83 17 143 7 131 -15 235 -72 352 -75 152 -238 253 -500 311 -68 15 134 26 220 12 151 -24 334 -101 430 -181 45 -37 50 -39 53 -21 2 11 -5 45 -16 75 l-18 55 40 -27 c23 -15 97 -58 166 -95 69 -38 154 -91 189 -118 l64 -51 -7 43 c-16 99 -86 220 -172 300 -66 60 -190 122 -299 151 -162 43 -409 27 -626 -41 -35 -10 -64 -18 -66 -17 -5 5 160 85 239 116 138 54 363 99 429 85 23 -5 22 -4 -6 21 -16 15 -43 33 -60 41 -27 13 -21 14 80 9 101 -6 250 -27 293 -42 27 -9 -47 66 -98 99 l-45 30 69 -6 c172 -17 385 -72 517 -135 35 -16 64 -29 65 -28 1 1 -17 32 -41 68 -74 110 -196 199 -340 246 -69 23 -97 27 -205 27 -140 0 -196 -12 -342 -75 -152 -65 -246 -128 -440 -296 -59 -51 -110 -93 -113 -93 -3 0 22 37 57 82 81 107 204 228 300 298 42 30 77 59 77 64 1 9 -64 3 -94 -9 -59 -24 157 164 288 250 31 21 56 40 53 42 -2 2 -30 -1 -62 -6 -33 -5 -60 -8 -61 -7 -10 9 313 229 379 259 15 6 28 15 28 19 0 19 -233 -36 -338 -80 -264 -110 -445 -312 -567 -632 -40 -105 -115 -260 -126 -260 -9 0 50 207 110 380 61 179 71 238 60 356 -18 195 -101 341 -255 449 -69 48 -87 56 -61 28z" fill="#b88a2a" />
    <path d="M7295 9178 c-120 -129 -211 -309 -266 -525 -37 -148 -50 -258 -51 -428 0 -234 34 -399 128 -607 25 -55 43 -102 41 -104 -7 -8 -115 115 -142 160 -43 74 -82 194 -114 360 -36 177 -54 222 -160 380 -89 135 -209 254 -351 348 -111 74 -265 154 -379 197 l-54 20 6 -63 c19 -199 114 -530 207 -718 95 -193 254 -403 387 -512 61 -51 63 -59 4 -22 -60 38 -249 130 -327 160 -39 15 -125 41 -190 58 -154 40 -355 50 -483 24 -88 -18 -251 -73 -251 -85 0 -10 124 -102 205 -152 114 -69 301 -154 445 -202 287 -96 566 -134 1000 -138 l195 -2 -161 -52 c-215 -70 -292 -121 -437 -289 l-52 -59 65 7 c241 27 469 127 703 306 15 12 27 20 27 17 0 -10 -204 -435 -319 -666 -67 -134 -121 -244 -119 -246 2 -1 37 -19 78 -40 99 -50 178 -104 222 -154 68 -75 83 -181 59 -436 -12 -120 -8 -156 33 -325 18 -72 26 -134 26 -195 l1 -90 30 35 c42 48 124 219 149 310 11 42 20 105 20 145 0 69 -3 76 -78 226 -98 195 -122 249 -110 249 5 0 92 -43 194 -96 102 -53 187 -94 190 -91 8 8 -143 164 -207 213 -66 51 -196 124 -221 124 -10 0 -18 5 -18 10 0 6 15 10 33 10 34 0 281 42 350 60 54 14 179 60 191 70 17 16 -170 23 -298 11 -119 -11 -255 -32 -316 -47 -20 -6 -14 2 25 36 84 72 197 191 251 263 48 65 134 201 134 213 0 12 -142 -104 -390 -316 -104 -89 -180 -146 -180 -133 0 4 15 33 33 63 18 30 69 120 112 200 89 165 190 338 247 423 45 67 38 67 153 -1 218 -129 343 -336 376 -627 21 -178 -17 -418 -88 -558 -34 -68 -84 -140 -180 -260 -73 -90 -80 -102 -91 -165 -31 -184 -107 -368 -202 -493 -49 -66 -359 -374 -367 -366 -2 3 16 33 40 68 25 35 60 93 78 129 32 62 34 70 34 170 0 74 -6 122 -19 165 -23 74 -17 85 -101 -207 -102 -360 -106 -366 -419 -549 -74 -43 -135 -89 -190 -142 -45 -43 -74 -76 -66 -73 8 3 76 30 151 60 338 138 580 178 877 146 266 -29 551 -136 723 -272 27 -21 51 -38 54 -38 3 0 -16 42 -42 92 -69 135 -183 247 -313 311 -126 62 -190 78 -341 84 -132 6 -284 -12 -371 -43 -75 -26 -52 -5 43 39 261 123 594 173 874 132 249 -36 435 -113 599 -249 44 -36 48 -38 41 -16 -44 150 -171 298 -315 368 -112 55 -182 72 -316 79 -165 8 -350 -24 -557 -97 -47 -16 -89 -30 -94 -30 -24 0 266 166 360 206 263 111 370 134 621 134 247 0 374 -26 535 -111 41 -21 76 -37 78 -35 2 1 -14 29 -35 62 -176 272 -559 350 -957 195 -44 -17 -80 -29 -82 -28 -1 2 53 37 120 80 314 196 542 268 850 268 131 0 202 -10 271 -37 32 -12 -28 60 -84 101 -124 91 -270 128 -425 106 -148 -21 -310 -84 -449 -176 -38 -25 -71 -44 -73 -42 -8 9 254 249 338 310 119 85 325 188 449 224 83 24 112 28 233 28 137 0 138 0 115 19 -13 10 -54 34 -93 52 -217 103 -500 35 -729 -176 l-60 -55 31 54 c45 78 145 212 216 288 179 190 401 310 617 331 l65 7 -60 24 c-74 29 -214 39 -298 21 -136 -28 -296 -140 -397 -278 -24 -34 -46 -60 -47 -58 -8 7 88 210 140 299 127 214 249 346 447 482 l55 37 -65 -7 c-169 -18 -298 -77 -421 -193 -164 -154 -231 -296 -314 -667 -73 -321 -181 -555 -379 -819 -143 -190 -301 -345 -450 -442 -28 -18 -28 -17 11 41 53 78 110 192 139 279 21 62 35 81 117 165 114 117 189 211 255 317 146 236 236 482 263 723 27 232 -51 461 -211 622 -66 67 -97 84 -169 94 l-53 7 68 -85 c144 -178 193 -312 201 -552 6 -176 -10 -258 -20 -104 -11 163 -85 380 -178 516 -47 69 -165 189 -229 233 -73 50 -154 90 -182 90 -22 1 -22 1 -4 15 26 20 76 19 236 -6 440 -66 838 -15 1171 151 101 51 289 168 289 180 0 15 -212 94 -299 112 -77 16 -120 19 -221 15 -214 -9 -360 -50 -668 -186 -100 -45 -188 -81 -194 -81 -7 0 21 19 63 43 188 107 428 324 552 497 76 107 161 273 205 401 56 159 122 509 97 509 -6 0 -45 -13 -87 -29 -235 -91 -451 -244 -590 -419 -122 -154 -203 -321 -263 -541 -47 -175 -104 -286 -197 -386 -39 -41 -76 -75 -83 -75 -8 0 6 32 35 81 178 300 227 702 131 1083 -54 212 -151 408 -266 533 l-60 66 -70 -75z m185 -507 c65 -194 75 -260 75 -481 0 -172 -3 -205 -23 -279 -26 -93 -92 -274 -99 -267 -2 2 3 44 11 92 40 236 45 529 12 679 -23 108 -79 255 -96 255 -14 0 -72 -135 -90 -209 -35 -139 -43 -245 -37 -461 3 -113 11 -236 17 -274 6 -38 9 -71 6 -73 -9 -9 -78 208 -92 291 -20 113 -14 392 11 506 25 115 81 274 136 390 l51 105 40 -79 c22 -43 57 -131 78 -195z m-1153 -183 c38 -51 89 -127 113 -168 103 -178 372 -570 455 -663 48 -54 86 -100 83 -102 -2 -3 -41 20 -86 51 -234 160 -495 539 -618 898 -13 38 -24 71 -24 73 0 11 16 -8 77 -89z m2058 -79 c-49 -113 -94 -193 -183 -324 -169 -248 -323 -409 -497 -521 -29 -18 -29 -17 8 26 98 115 164 202 299 391 193 271 394 527 405 515 2 -2 -13 -41 -32 -87z m-2230 -743 c157 -38 296 -79 490 -144 155 -52 166 -57 127 -60 -92 -7 -411 61 -647 138 -139 46 -335 122 -335 131 0 9 231 -33 365 -65z m2545 -121 c-107 -43 -425 -121 -567 -140 -196 -25 -287 -25 -195 2 20 6 107 31 192 55 243 71 473 115 605 116 l50 1 -85 -34z" fill="#b88a2a" />
    <path d="M4792 9199 c-65 -13 -159 -67 -207 -121 -148 -165 -144 -410 9 -564 168 -167 423 -162 586 12 80 86 104 149 105 274 0 86 -3 101 -32 162 -85 181 -269 275 -461 237z" fill="#b88a2a" />
    <path d="M8025 8999 c-60 -38 -174 -147 -220 -209 l-34 -46 19 -66 c23 -84 50 -240 50 -292 l0 -40 31 50 c52 82 153 206 215 264 l59 55 -3 55 c-5 97 -43 260 -61 260 -4 0 -29 -14 -56 -31z" fill="#b88a2a" />
    <path d="M6632 8958 c-12 -35 -27 -98 -33 -141 l-12 -79 60 -61 c76 -78 148 -167 193 -236 l34 -54 18 109 c9 60 26 140 37 179 22 79 22 79 -50 170 -59 75 -183 175 -216 175 -5 0 -19 -28 -31 -62z" fill="#b88a2a" />
    <path d="M5550 8447 c0 -27 59 -167 100 -236 43 -74 124 -173 149 -182 9 -4 61 -12 116 -18 55 -6 135 -20 178 -30 42 -10 77 -17 77 -16 0 2 -20 38 -45 81 -38 67 -109 220 -128 275 -7 21 -126 82 -211 108 -37 12 -106 24 -152 28 -73 5 -84 4 -84 -10z" fill="#b88a2a" />
    <path d="M8885 8333 c-38 -8 -94 -25 -125 -37 -48 -21 -59 -30 -84 -77 -69 -130 -139 -239 -196 -307 -34 -41 -60 -75 -58 -77 2 -2 48 3 103 10 55 8 122 15 149 15 42 0 57 6 102 41 71 54 191 181 235 249 52 78 101 178 94 190 -9 15 -139 11 -220 -7z" fill="#b88a2a" />
    <path d="M2669 7512 c-27 -62 -69 -187 -69 -204 0 -12 145 -68 177 -68 5 0 27 51 47 113 21 61 39 117 42 123 3 6 -18 16 -50 23 -30 7 -71 23 -91 37 l-36 24 -20 -48z" fill="#b88a2a" />
    <path d="M4944 7535 c-61 -13 -150 -53 -191 -85 -18 -14 -31 -15 -85 -7 -75 11 -191 -8 -265 -44 -52 -25 -153 -116 -183 -163 -19 -32 -23 -34 -95 -38 -145 -9 -261 -95 -339 -249 -38 -75 -45 -83 -81 -94 -153 -46 -246 -141 -314 -317 -6 -16 -18 -28 -28 -28 -30 0 -117 -56 -157 -100 -38 -43 -96 -151 -96 -181 0 -10 -22 -27 -55 -43 -67 -33 -128 -101 -152 -169 -38 -110 -9 -374 68 -610 81 -252 253 -523 449 -711 139 -132 292 -238 490 -336 58 -29 107 -54 109 -56 1 -1 7 -37 12 -79 10 -95 34 -129 121 -181 183 -107 480 -152 933 -141 421 10 674 69 789 184 36 36 39 47 52 170 l6 63 106 53 c225 114 350 203 517 371 271 273 418 532 500 881 51 220 57 324 21 400 -37 79 -106 140 -227 198 l-106 52 -11 56 c-28 152 -144 295 -267 329 -35 10 -50 20 -57 39 -67 167 -131 258 -226 323 -48 33 -142 68 -183 68 -23 0 -35 13 -83 83 -107 161 -225 227 -408 227 -88 0 -89 0 -138 39 -123 97 -269 130 -426 96z m243 -157 c40 -15 77 -39 119 -80 l62 -59 46 12 c62 16 170 7 227 -18 93 -41 164 -127 199 -241 11 -39 22 -56 31 -53 29 8 126 3 166 -8 115 -32 218 -174 241 -334 l7 -52 62 -7 c33 -4 79 -16 101 -27 90 -46 154 -162 156 -283 l1 -68 47 -16 c68 -22 101 -58 127 -135 20 -60 25 -67 54 -73 l32 -7 -58 -30 c-399 -205 -1584 -295 -2682 -204 -362 30 -613 69 -785 121 -95 29 -250 100 -250 114 0 18 48 41 99 47 41 5 50 9 47 22 -21 70 -9 168 30 243 39 75 114 131 191 144 l39 6 27 88 c21 69 36 97 70 136 58 64 124 97 205 102 60 4 62 5 62 32 0 39 72 179 115 223 63 65 108 82 207 81 83 -1 86 0 98 25 24 53 82 121 133 154 103 67 201 83 301 48 l54 -19 39 40 c66 69 136 95 255 97 46 1 85 -6 125 -21z m-1932 -1713 c335 -110 984 -175 1740 -175 682 0 1223 48 1583 141 111 28 332 109 360 132 19 15 21 6 9 -47 -11 -48 -13 -50 -81 -83 -236 -113 -600 -184 -1176 -230 -320 -25 -1157 -25 -1445 0 -557 50 -894 113 -1119 209 -78 33 -80 36 -97 84 -27 76 -25 77 53 38 39 -20 117 -51 173 -69z m-91 -242 c35 -134 75 -223 110 -244 26 -16 66 -26 66 -16 0 1 -16 60 -35 132 -19 71 -33 131 -31 133 2 2 26 -3 52 -11 l49 -14 42 -169 c23 -93 40 -170 38 -172 -4 -5 -147 36 -190 54 -28 12 -42 28 -74 92 -38 76 -103 240 -117 295 l-7 29 39 -20 c36 -18 41 -26 58 -89z m3723 85 c-2 -7 -19 -49 -36 -94 -28 -74 -35 -83 -71 -99 -22 -10 -42 -16 -45 -13 -3 2 8 42 23 88 26 78 31 84 72 106 52 27 64 29 57 12z m-237 -92 c0 -21 -103 -316 -113 -325 -29 -23 -439 -123 -452 -109 -3 3 11 80 31 171 27 122 41 168 53 171 9 3 31 8 49 11 30 6 33 5 29 -11 -13 -43 -49 -225 -45 -229 2 -2 62 11 133 28 l130 32 24 68 c13 37 21 70 18 73 -2 3 -35 -2 -72 -11 -37 -8 -70 -14 -72 -12 -8 9 14 81 27 88 17 9 215 56 243 58 9 0 17 -1 17 -3z m-2763 -109 c5 -6 54 -350 50 -354 -8 -7 -367 73 -367 83 0 1 -16 75 -35 163 -19 88 -35 164 -35 169 0 9 376 -51 387 -61z m2133 -9 c0 -17 -67 -329 -72 -333 -12 -12 -484 -62 -494 -52 -3 3 0 67 5 143 6 77 11 153 11 171 0 38 -10 36 290 62 262 23 260 23 260 9z m-1880 -20 c0 -6 5 -62 11 -124 l12 -112 66 -7 c36 -4 112 -10 169 -14 l102 -6 0 77 0 77 -112 3 -113 3 -3 54 -3 54 103 -7 c57 -3 136 -9 176 -13 l72 -6 0 -175 0 -175 -143 7 c-160 8 -405 30 -413 38 -2 3 -11 61 -19 129 -8 68 -17 143 -20 167 l-5 42 60 0 c40 0 60 -4 60 -12z m1194 -125 c-4 -60 -10 -139 -13 -178 l-6 -70 -282 -3 -283 -2 0 77 c0 43 3 122 7 176 l6 97 54 0 53 0 1 -107 c1 -60 2 -115 3 -123 1 -13 28 -15 162 -18 l161 -2 7 46 c3 26 6 62 6 80 l0 34 -105 0 -105 0 0 43 c0 24 3 47 7 50 3 4 80 7 170 7 l164 0 -7 -107z m1403 20 c-9 -10 -31 -26 -49 -36 l-33 -18 39 35 c40 37 72 50 43 19z m-2932 -323 c127 -32 266 -66 310 -74 l80 -16 -95 4 c-75 3 -84 2 -45 -5 182 -30 178 -28 60 -24 -108 3 -109 3 -35 -6 150 -19 173 -28 65 -24 -96 4 -97 3 -35 -6 146 -22 159 -27 55 -23 -78 2 -90 1 -55 -6 25 -5 64 -9 88 -9 24 -1 41 -5 38 -10 -3 -5 -14 -8 -24 -6 -39 8 -145 15 -139 9 3 -3 48 -12 99 -20 l93 -13 -105 3 c-120 4 -116 1 25 -19 l100 -14 -100 6 c-55 3 -97 3 -94 -1 5 -5 183 -28 228 -28 13 0 18 -4 12 -7 -6 -4 -46 -3 -89 1 -131 15 -144 4 -17 -14 l120 -17 -95 5 c-52 3 -104 7 -115 10 -16 4 -17 3 -5 -5 9 -5 54 -15 100 -21 47 -6 87 -14 90 -17 6 -6 -133 5 -169 14 -16 4 -22 2 -17 -5 3 -6 42 -14 86 -18 44 -3 80 -10 80 -15 0 -5 -19 -6 -42 -3 -24 2 -71 8 -106 13 -34 4 -59 4 -55 0 4 -4 59 -13 121 -20 61 -7 112 -17 112 -21 0 -5 -17 -6 -37 -3 -95 11 -147 14 -128 6 11 -5 55 -12 98 -16 42 -4 77 -10 77 -14 0 -3 -30 -5 -67 -4 -64 1 -65 1 -23 -7 25 -5 66 -9 93 -9 26 -1 47 -6 47 -11 0 -10 -23 -9 -193 11 -199 22 -520 207 -712 410 -64 67 -135 152 -135 161 0 3 51 -10 113 -29 61 -19 216 -61 342 -93z m425 -90 c12 -8 11 -10 -7 -10 -13 0 -23 5 -23 10 0 13 11 13 30 0z m97 -36 c-3 -3 -12 -4 -19 -1 -8 3 -5 6 6 6 11 1 17 -2 13 -5z m-47 -18 c0 -11 -19 -15 -25 -6 -3 5 1 10 9 10 9 0 16 -2 16 -4z m25 -6 c3 -5 1 -10 -4 -10 -6 0 -11 5 -11 10 0 6 2 10 4 10 3 0 8 -4 11 -10z m-28 -56 c-3 -3 -12 -4 -19 -1 -8 3 -5 6 6 6 11 1 17 -2 13 -5z m18 -24 c3 -5 -1 -10 -10 -10 -9 0 -13 5 -10 10 3 6 8 10 10 10 2 0 7 -4 10 -10z m15 -30 c0 -5 -5 -10 -11 -10 -5 0 -7 5 -4 10 3 6 8 10 11 10 2 0 4 -4 4 -10z m47 -86 c-3 -3 -12 -4 -19 -1 -8 3 -5 6 6 6 11 1 17 -2 13 -5z m-20 -30 c-3 -3 -12 -4 -19 -1 -8 3 -5 6 6 6 11 1 17 -2 13 -5z m80 0 c-3 -3 -12 -4 -19 -1 -8 3 -5 6 6 6 11 1 17 -2 13 -5z m-29 -31 c-10 -2 -26 -2 -35 0 -10 3 -2 5 17 5 19 0 27 -2 18 -5z m42 -3 c0 -5 -2 -10 -4 -10 -3 0 -8 5 -11 10 -3 6 -1 10 4 10 6 0 11 -4 11 -10z m-55 -20 c3 -5 -1 -10 -10 -10 -9 0 -13 5 -10 10 3 6 8 10 10 10 2 0 7 -4 10 -10z m82 -36 c-3 -3 -12 -4 -19 -1 -8 3 -5 6 6 6 11 1 17 -2 13 -5z m-208 -139 c137 -35 370 -65 631 -80 206 -12 665 28 809 71 77 22 73 10 -6 -20 -97 -37 -218 -66 -277 -67 -42 0 -47 -2 -28 -10 13 -5 29 -6 34 -2 7 3 8 1 4 -5 -4 -7 -22 -12 -39 -13 -31 -1 -31 -1 -7 -9 24 -8 24 -8 -6 -9 -22 -1 -33 -7 -37 -20 -4 -16 1 -21 27 -24 17 -3 6 -4 -26 -3 -31 0 -54 -2 -51 -6 2 -5 32 -9 66 -10 l62 -2 -70 -6 c-48 -4 -59 -8 -35 -10 66 -6 -99 -17 -270 -19 -355 -2 -607 30 -751 96 -82 37 -109 71 -109 133 0 35 3 35 79 15z m1111 -165 c0 -5 -4 -10 -10 -10 -5 0 -10 5 -10 10 0 6 5 10 10 10 6 0 10 -4 10 -10z m40 6 c0 -3 -4 -8 -10 -11 -5 -3 -10 -1 -10 4 0 6 5 11 10 11 6 0 10 -2 10 -4z m35 -6 c3 -5 1 -10 -4 -10 -6 0 -11 5 -11 10 0 6 2 10 4 10 3 0 8 -4 11 -10z" fill="#b88a2a" />
    <path d="M4967 7176 c-54 -50 -43 -102 33 -153 45 -32 145 -32 184 -2 36 28 37 89 1 125 -58 58 -171 73 -218 30z" fill="#b88a2a" />
    <path d="M4553 7070 c-33 -14 -56 -54 -48 -88 12 -58 111 -131 178 -132 41 0 65 16 72 50 15 67 -44 148 -122 169 -44 13 -51 13 -80 1z" fill="#b88a2a" />
    <path d="M5476 7049 c-32 -25 -35 -77 -8 -129 26 -48 113 -100 168 -100 54 0 68 17 61 76 -6 61 -50 123 -107 152 -55 27 -80 28 -114 1z" fill="#b88a2a" />
    <path d="M4079 6827 c-18 -12 -44 -38 -57 -57 -20 -29 -23 -44 -19 -89 6 -86 57 -109 129 -60 33 24 78 112 78 154 0 72 -63 98 -131 52z" fill="#b88a2a" />
    <path d="M5085 6756 c-80 -37 -120 -121 -77 -160 70 -63 228 -15 269 81 36 87 -77 133 -192 79z" fill="#b88a2a" />
    <path d="M5910 6692 c-33 -34 -37 -56 -16 -107 31 -74 155 -114 221 -71 24 16 27 23 22 57 -6 43 -43 100 -83 125 -13 9 -44 19 -69 21 -39 5 -47 2 -75 -25z" fill="#b88a2a" />
    <path d="M4392 6648 c-15 -15 -16 -97 -1 -135 33 -89 164 -143 210 -87 40 48 -21 177 -103 220 -33 17 -90 18 -106 2z" fill="#b88a2a" />
    <path d="M5515 6537 c-89 -50 -135 -188 -80 -242 28 -29 34 -30 83 -9 73 30 127 103 138 188 5 36 3 47 -15 65 -28 28 -75 27 -126 -2z" fill="#b88a2a" />
    <path d="M3728 6449 c-37 -19 -68 -62 -68 -94 0 -9 11 -27 25 -40 20 -21 34 -25 82 -25 69 0 138 29 154 63 9 19 7 31 -5 55 -32 61 -116 79 -188 41z" fill="#b88a2a" />
    <path d="M4802 6404 c-26 -18 -30 -79 -8 -123 36 -69 132 -120 202 -107 65 13 63 98 -4 170 -30 31 -115 76 -147 76 -11 0 -31 -7 -43 -16z" fill="#b88a2a" />
    <path d="M6340 6292 c-41 -20 -90 -106 -90 -157 0 -38 36 -81 76 -91 65 -17 134 63 134 154 0 84 -55 127 -120 94z" fill="#b88a2a" />
    <path d="M5840 6270 c-28 -28 -25 -68 9 -121 35 -57 86 -89 137 -89 60 0 84 22 84 75 0 35 -6 52 -32 80 -61 70 -156 97 -198 55z" fill="#b88a2a" />
    <path d="M4191 6264 c-20 -14 -23 -23 -18 -60 12 -106 150 -191 225 -138 57 40 -1 157 -100 198 -48 20 -78 20 -107 0z" fill="#b88a2a" />
    <path d="M3462 6164 c-27 -18 -30 -69 -6 -103 18 -26 87 -60 120 -61 35 0 67 33 67 69 0 74 -120 138 -181 95z" fill="#b88a2a" />
    <path d="M5325 6080 c-44 -10 -68 -24 -108 -69 -84 -93 -63 -190 39 -178 85 9 174 95 174 166 0 66 -38 95 -105 81z" fill="#b88a2a" />
    <path d="M3873 6030 c-61 -37 -53 -94 17 -130 58 -30 130 -27 169 6 17 14 31 36 31 48 0 77 -137 125 -217 76z" fill="#b88a2a" />
    <path d="M4648 6003 c-28 -32 -30 -58 -6 -93 31 -45 78 -71 132 -73 112 -5 114 108 3 162 -53 26 -108 27 -129 4z" fill="#b88a2a" />
    <path d="M5694 5961 c-39 -24 -45 -33 -46 -73 -3 -81 133 -93 186 -16 54 76 -52 143 -140 89z" fill="#b88a2a" />
    <path d="M3625 5229 c3 -19 9 -54 13 -79 l7 -45 65 -17 c82 -21 114 -22 107 -5 -3 8 -8 43 -12 80 l-7 66 -52 10 c-28 6 -68 13 -89 17 l-38 6 6 -33z" fill="#b88a2a" />
    <path d="M5705 5187 c-60 -5 -111 -10 -111 -11 -1 -1 -5 -35 -9 -77 l-7 -76 28 3 c16 2 81 8 145 14 l116 12 11 63 c7 34 12 67 12 74 0 12 -24 12 -185 -2z" fill="#b88a2a" />
    <path d="M3978 4743 c7 -3 16 -2 19 1 4 3 -2 6 -13 5 -11 0 -14 -3 -6 -6z" fill="#b88a2a" />
    <path d="M4085 4570 c3 -5 8 -10 11 -10 2 0 4 5 4 10 0 6 -5 10 -11 10 -5 0 -7 -4 -4 -10z" fill="#b88a2a" />
    <path d="M4073 4543 c9 -2 23 -2 30 0 6 3 -1 5 -18 5 -16 0 -22 -2 -12 -5z" fill="#b88a2a" />
    <path d="M4048 4523 c7 -3 16 -2 19 1 4 3 -2 6 -13 5 -11 0 -14 -3 -6 -6z" fill="#b88a2a" />
    <path d="M5278 4093 c6 -2 18 -2 25 0 6 3 1 5 -13 5 -14 0 -19 -2 -12 -5z" fill="#b88a2a" />
    <path d="M5278 4073 c7 -3 16 -2 19 1 4 3 -2 6 -13 5 -11 0 -14 -3 -6 -6z" fill="#b88a2a" />
    <path d="M5228 4053 c7 -3 16 -2 19 1 4 3 -2 6 -13 5 -11 0 -14 -3 -6 -6z" fill="#b88a2a" />
    <path d="M2571 7186 c-12 -57 -32 -228 -28 -233 4 -3 181 -32 184 -29 3 3 43 233 43 246 0 4 -17 11 -37 15 -21 3 -64 17 -95 29 l-57 23 -10 -51z" fill="#b88a2a" />
    <path d="M2301 7084 c-7 -15 -19 -74 -28 -132 -11 -75 -22 -114 -39 -139 -27 -40 -28 -53 -14 -102 9 -34 9 -36 -69 -110 -87 -83 -165 -135 -245 -163 -56 -19 -150 -23 -191 -8 -23 9 -24 8 -16 -8 35 -64 123 -119 247 -153 73 -20 94 -21 403 -16 355 5 397 10 496 66 44 25 122 107 112 117 -2 2 -18 -3 -36 -12 -52 -26 -150 -15 -231 25 -80 40 -116 66 -207 154 l-71 69 5 52 c5 48 3 55 -26 88 -23 27 -31 45 -31 74 -1 62 -19 173 -33 200 l-13 25 -13 -27z" fill="#b88a2a" />
    <path d="M2541 6809 c0 -46 3 -102 7 -124 7 -37 12 -42 90 -83 l82 -44 0 149 0 149 -73 12 c-40 6 -81 14 -90 18 -15 5 -17 -3 -16 -77z" fill="#b88a2a" />
    <path d="M2009 6098 c-1 -57 -2 -118 -2 -135 0 -33 0 -33 -48 -33 -42 0 -50 -3 -70 -32 -75 -107 -176 -142 -289 -99 l-49 19 13 -27 c18 -34 83 -95 121 -114 64 -32 146 -37 613 -37 l464 0 -5 23 c-8 28 -47 248 -47 259 0 4 -25 8 -55 8 l-55 0 3 135 2 135 -297 0 -298 0 -1 -102z m389 -100 l-3 -73 -82 -3 -83 -3 0 76 0 75 86 0 86 0 -4 -72z" fill="#b88a2a" />
    <path d="M1920 5400 l0 -180 -35 0 c-34 0 -35 -1 -35 -38 0 -46 45 -104 118 -154 26 -18 66 -50 89 -71 l41 -38 7 40 c10 62 60 157 111 211 l47 50 -52 0 -51 0 0 88 c0 98 15 127 61 120 34 -4 49 -43 49 -125 0 -46 5 -76 13 -82 73 -58 111 -102 142 -165 19 -39 37 -90 41 -113 l6 -41 82 60 c44 33 106 82 136 108 30 26 65 52 78 59 16 9 22 21 22 46 l0 35 -48 0 -49 0 -6 122 c-4 66 -7 149 -7 183 l0 62 -380 1 -380 1 0 -179z m586 26 c16 -12 20 -29 22 -110 l4 -96 -56 0 -56 0 0 88 c0 92 3 102 35 120 26 15 28 15 51 -2z" fill="#b88a2a" />
    <path d="M2241 5079 c-54 -73 -66 -128 -66 -290 l0 -147 -30 57 c-43 81 -173 208 -261 254 -73 37 -197 72 -290 80 l-51 4 25 -62 c38 -97 128 -221 207 -288 46 -38 118 -83 209 -128 77 -38 146 -75 153 -81 23 -19 14 3 -21 51 -43 58 -145 156 -213 205 -29 21 -53 40 -53 42 0 8 104 -48 161 -87 105 -71 210 -216 233 -321 l6 -28 -56 40 c-72 50 -192 97 -289 112 -123 19 -244 -14 -314 -86 l-30 -31 152 0 c134 0 165 -4 262 -29 110 -28 230 -77 284 -116 l30 -20 53 31 c70 41 158 74 288 107 93 24 124 27 277 27 l172 0 -26 27 c-67 70 -213 116 -327 103 -109 -13 -249 -70 -340 -140 -27 -20 -50 -34 -54 -31 -7 8 16 82 40 131 52 101 134 183 253 250 55 31 53 27 -17 -28 -46 -37 -168 -180 -168 -198 0 -5 7 -5 18 1 9 5 61 30 116 55 212 97 344 231 406 411 11 31 20 59 20 62 0 11 -140 -9 -193 -27 -170 -59 -298 -162 -392 -316 l-37 -60 9 70 c14 119 7 243 -16 305 -20 54 -74 130 -92 130 -5 0 -22 -18 -38 -41z" fill="#b88a2a" />
    <path d="M1540 3891 c63 -78 64 -85 68 -636 2 -336 -1 -521 -8 -564 -11 -64 -39 -130 -68 -163 -14 -17 -3 -18 223 -18 228 0 237 1 222 18 -9 10 -26 40 -39 67 -21 47 -23 65 -26 303 l-4 252 106 0 c123 0 162 -12 219 -68 l37 -36 0 187 0 187 -46 -35 c-62 -48 -88 -53 -246 -47 l-68 2 0 201 0 201 133 -4 c152 -5 196 -19 271 -88 l46 -43 0 162 0 161 -425 0 -426 0 31 -39z" fill="#b88a2a" />
    <path d="M6798 3751 c-222 -73 -358 -304 -358 -607 0 -186 53 -338 157 -454 170 -187 492 -195 666 -17 165 168 219 480 130 748 -49 148 -156 270 -281 319 -81 32 -235 37 -314 11z m240 -179 c33 -24 75 -102 92 -173 6 -24 13 -114 16 -199 10 -249 -30 -410 -116 -468 -30 -20 -44 -23 -99 -20 -59 4 -66 7 -101 44 -74 80 -107 239 -97 469 10 202 51 318 127 358 48 25 135 19 178 -11z" fill="#b88a2a" />
    <path d="M7530 3752 c0 -2 9 -15 20 -29 46 -59 50 -100 51 -568 2 -470 -1 -501 -47 -562 l-25 -33 162 0 c155 0 161 1 146 18 -9 10 -24 38 -33 62 -15 39 -18 95 -21 388 -1 188 0 342 5 342 4 0 18 -33 31 -73 13 -39 77 -220 142 -402 l117 -330 33 0 c31 0 34 3 55 60 13 33 80 213 149 400 70 187 131 347 136 355 6 9 8 -125 6 -350 -2 -348 -4 -367 -24 -419 -12 -30 -32 -64 -44 -77 l-22 -24 227 0 227 0 -25 33 c-54 70 -57 113 -54 624 3 424 5 472 21 508 10 21 25 47 34 57 16 18 9 18 -182 16 l-199 -3 -78 -205 c-143 -374 -170 -441 -175 -437 -2 3 -60 148 -127 324 l-122 318 -192 5 c-106 3 -192 3 -192 2z" fill="#b88a2a" />
    <path d="M2495 3715 c53 -68 55 -92 55 -559 0 -283 -4 -445 -11 -471 -6 -22 -24 -59 -40 -82 l-28 -43 216 0 216 0 -22 24 c-38 41 -52 109 -58 289 l-6 168 53 -3 52 -3 68 -150 c69 -155 128 -263 163 -302 20 -22 27 -23 185 -23 l165 0 -51 54 c-28 29 -72 87 -99 127 -50 78 -183 336 -183 356 0 7 19 21 43 31 63 28 103 67 134 130 25 51 28 68 28 152 -1 116 -25 179 -91 240 -95 88 -159 100 -525 100 l-290 0 26 -35z m533 -152 c57 -43 67 -67 67 -166 0 -112 -18 -150 -85 -185 -37 -18 -58 -22 -115 -20 l-70 3 -3 192 -2 192 27 4 c59 10 155 0 181 -20z" fill="#b88a2a" />
    <path d="M3579 3709 c50 -68 53 -104 49 -584 -3 -398 -5 -444 -21 -480 -10 -22 -28 -50 -39 -62 l-21 -23 386 0 387 0 0 150 c0 83 -3 150 -6 150 -4 0 -26 -18 -50 -39 -53 -50 -113 -68 -256 -77 l-108 -6 0 176 0 176 95 0 c98 0 148 -13 174 -43 7 -10 17 -17 20 -17 4 0 8 65 8 145 1 80 -2 145 -6 145 -3 0 -11 -8 -18 -18 -22 -37 -75 -52 -177 -52 l-95 0 0 162 c0 89 2 164 4 167 2 4 61 4 132 1 109 -5 135 -9 177 -30 26 -14 57 -35 67 -49 19 -24 19 -23 19 113 l0 136 -375 0 -375 0 29 -41z" fill="#b88a2a" />
    <path d="M4503 3688 l32 -61 0 -456 c0 -486 -2 -504 -50 -575 l-24 -36 384 0 385 0 0 150 c0 83 -2 150 -4 150 -2 0 -19 -14 -37 -31 -54 -50 -104 -70 -203 -80 -50 -4 -110 -9 -133 -9 l-43 0 0 175 0 175 94 0 c105 0 138 -9 179 -48 l28 -27 -2 153 c-1 138 -7 177 -22 137 -4 -8 -24 -23 -46 -35 -32 -16 -59 -20 -136 -20 l-95 0 0 168 0 167 112 -3 c133 -4 190 -19 247 -68 l41 -36 0 136 0 136 -369 0 -370 0 32 -62z" fill="#b88a2a" />
    <path d="M5385 3715 c13 -21 29 -54 35 -74 6 -22 10 -211 10 -477 0 -479 -3 -510 -56 -574 l-26 -30 215 0 c263 0 357 14 473 70 177 85 278 259 291 500 16 287 -115 510 -347 591 -60 21 -86 23 -343 27 l-278 4 26 -37z m478 -151 c63 -21 112 -79 138 -164 26 -86 36 -260 20 -370 -27 -180 -96 -259 -245 -276 l-56 -7 -2 417 -3 416 51 0 c28 0 72 -7 97 -16z" fill="#b88a2a" />
    <path d="M3985 2356 c-187 -46 -308 -206 -322 -426 -18 -295 159 -510 422 -510 145 0 263 61 340 175 54 80 75 150 82 265 7 119 -20 231 -76 318 -99 151 -272 221 -446 178z m162 -145 c83 -38 129 -175 120 -356 -11 -200 -73 -295 -193 -295 -43 0 -51 4 -88 43 -67 69 -97 217 -77 380 14 124 49 193 111 225 54 27 73 27 127 3z" fill="#b88a2a" />
    <path d="M7063 2360 c-200 -40 -290 -269 -161 -415 38 -44 105 -86 198 -125 41 -18 90 -43 107 -56 57 -43 60 -121 8 -174 -22 -22 -34 -25 -93 -25 -85 0 -154 31 -234 104 l-58 53 0 -119 0 -119 68 -22 c176 -57 343 -55 441 6 143 88 184 257 93 380 -46 63 -102 101 -222 152 -110 46 -150 82 -150 134 0 26 8 41 31 60 60 51 170 28 282 -57 l47 -37 0 104 0 104 -62 21 c-113 37 -212 47 -295 31z" fill="#b88a2a" />
    <path d="M2735 2314 c13 -20 28 -52 32 -73 5 -20 8 -184 8 -366 0 -303 -2 -333 -19 -365 -10 -19 -26 -43 -35 -53 -15 -18 -7 -19 264 -15 265 4 283 5 340 28 74 28 138 90 154 145 24 87 7 180 -42 233 -28 30 -89 62 -119 62 -16 0 -8 8 32 33 72 43 100 91 100 174 0 73 -11 108 -48 146 -68 73 -143 87 -454 87 l-237 0 24 -36z m430 -108 c45 -19 69 -66 62 -124 -3 -24 -13 -53 -23 -63 -21 -20 -121 -49 -171 -49 l-33 0 0 125 0 125 65 0 c36 0 81 -6 100 -14z m12 -385 c49 -23 73 -62 73 -121 0 -55 -24 -99 -64 -115 -18 -8 -67 -17 -109 -21 l-77 -7 0 142 0 141 68 0 c44 0 81 -7 109 -19z" fill="#b88a2a" />
    <path d="M4598 2323 c27 -39 53 -116 178 -526 l108 -358 100 3 99 3 74 219 c40 121 75 221 76 223 2 1 34 -99 72 -223 l69 -225 105 3 105 3 136 420 c75 231 144 435 153 453 l18 32 -136 0 -136 0 16 -30 c17 -34 19 -85 5 -159 -18 -98 -123 -443 -130 -429 -4 7 -38 126 -75 263 -37 138 -73 274 -82 303 l-14 52 -115 0 -115 0 17 -31 c22 -43 44 -118 44 -152 0 -38 -137 -447 -150 -447 -5 0 -81 307 -106 434 -15 75 -15 140 1 179 7 16 -5 17 -165 17 l-171 0 19 -27z" fill="#b88a2a" />
    <path d="M6043 2332 c44 -49 47 -74 47 -434 -1 -358 -5 -393 -46 -439 -17 -19 -13 -19 304 -19 l322 0 0 120 0 120 -54 -35 c-57 -39 -127 -54 -238 -55 l-58 0 0 323 c1 335 5 373 46 418 17 19 14 19 -161 19 -170 0 -177 -1 -162 -18z" fill="#b88a2a" />
    <path d="M1986 1994 l-149 -76 151 -79 152 -80 151 79 151 79 -147 77 c-80 42 -149 76 -153 75 -4 0 -74 -34 -156 -75z" fill="#b88a2a" />
    <path d="M7927 1993 l-147 -77 150 -78 150 -79 150 78 c82 43 146 81 142 84 -13 12 -278 149 -288 149 -5 0 -75 -35 -157 -77z" fill="#b88a2a" />
  </g>
</svg>